<svg width="171" height="50" viewBox="0 0 171 50" fill="none" xmlns="http://www.w3.org/2000/svg">
<path d="M118.72 24.9675H112.138L111.393 27.1204C111.187 27.7166 110.625 28.1165 109.994 28.1165H109.672C108.647 28.1165 107.933 27.1008 108.279 26.1366L113.159 12.5459C113.37 11.9582 113.927 11.5662 114.552 11.5662H116.329C116.954 11.5662 117.511 11.9582 117.722 12.5459L122.602 26.1366C122.948 27.1008 122.234 28.1165 121.21 28.1165H120.863C120.232 28.1165 119.671 27.7166 119.464 27.1204L118.72 24.9675ZM117.82 22.3156L115.429 15.4019L113.037 22.3156H117.82Z" fill="white"/>
<path d="M105.31 26.6367C105.31 27.454 104.648 28.1165 103.83 28.1165H102.79C102.294 28.1165 101.83 27.8675 101.556 27.4534L94.4896 16.7752V25.4055V26.6367C94.4896 27.454 93.8271 28.1165 93.0098 28.1165H92.6546C91.8373 28.1165 91.1748 27.454 91.1748 26.6367V13.046C91.1748 12.2287 91.8373 11.5662 92.6546 11.5662H93.6935C94.1906 11.5662 94.6544 11.8157 94.9283 12.2305L101.995 22.9312V13.046C101.995 12.2287 102.658 11.5662 103.475 11.5662H103.83C104.648 11.5662 105.31 12.2287 105.31 13.046V26.6367Z" fill="white"/>
<path d="M88.7507 11.5901C88.8573 11.5901 88.9289 11.6995 88.8863 11.7972L87.8999 14.0584V27.8208C87.8999 27.9843 87.7674 28.1168 87.6039 28.1168H84.881C84.7176 28.1168 84.5851 27.9843 84.5851 27.8208V14.0584L83.6072 11.7968C83.565 11.6991 83.6366 11.5901 83.743 11.5901H88.7507Z" fill="#F98600"/>
<path d="M75.8626 28.2822C74.7103 28.2822 73.6685 28.0849 72.7372 27.6903C71.8217 27.2957 71.0956 26.7274 70.5589 25.9856C70.1594 25.4333 69.9042 24.8067 69.7934 24.1057C69.7288 23.6976 70.0686 23.3574 70.4818 23.3574H72.5917C72.9804 23.3574 73.2885 23.6642 73.4064 24.0345C73.524 24.4038 73.7192 24.7147 73.9921 24.9674C74.4341 25.3621 75.0339 25.5594 75.7916 25.5594C76.5651 25.5594 77.1728 25.3778 77.6147 25.0148C78.0567 24.636 78.2777 24.1466 78.2777 23.5468C78.2777 23.0575 78.1277 22.655 77.8278 22.3393C77.5279 22.0236 77.1491 21.7789 76.6913 21.6053C76.2494 21.4158 75.6337 21.2106 74.8445 20.9897C73.7711 20.674 72.8951 20.3662 72.2163 20.0662C71.5534 19.7505 70.9772 19.2849 70.4879 18.6693C70.0144 18.0379 69.7776 17.2013 69.7776 16.1595C69.7776 15.1808 70.0222 14.3285 70.5116 13.6024C71.0009 12.8763 71.6875 12.3238 72.5715 11.945C73.4554 11.5503 74.4657 11.353 75.6022 11.353C77.3069 11.353 78.6881 11.7713 79.7457 12.6079C80.6207 13.277 81.1757 14.1664 81.4109 15.276C81.5001 15.6969 81.1547 16.0648 80.7244 16.0648H78.5751C78.1824 16.0648 77.8764 15.7456 77.7157 15.3873C77.5932 15.1143 77.4017 14.8744 77.1412 14.6678C76.6992 14.289 76.1073 14.0996 75.3654 14.0996C74.7182 14.0996 74.1973 14.2653 73.8027 14.5968C73.4239 14.9283 73.2345 15.4097 73.2345 16.0411C73.2345 16.4831 73.3765 16.854 73.6606 17.1539C73.9606 17.4381 74.3236 17.6748 74.7498 17.8643C75.1918 18.0379 75.8074 18.2431 76.5966 18.4799C77.67 18.7956 78.546 19.1113 79.2248 19.427C79.9035 19.7427 80.4876 20.2162 80.9769 20.8476C81.4662 21.479 81.7109 22.3077 81.7109 23.3337C81.7109 24.2177 81.482 25.0385 81.0243 25.7961C80.5665 26.5538 79.8956 27.1615 79.0117 27.6193C78.1277 28.0613 77.0781 28.2822 75.8626 28.2822Z" fill="white"/>
<path d="M55.4346 11.5901C56.2519 11.5901 56.9144 12.2526 56.9144 13.0699V21.8186C56.9144 22.9394 57.2064 23.7996 57.7905 24.3995C58.3745 24.9835 59.1953 25.2755 60.2529 25.2755C61.3263 25.2755 62.155 24.9835 62.739 24.3995C63.3231 23.7996 63.6151 22.9394 63.6151 21.8186V13.0699C63.6151 12.2526 64.2776 11.5901 65.0949 11.5901H65.4737C66.291 11.5901 66.9536 12.2526 66.9536 13.0699V21.795C66.9536 23.1998 66.6458 24.3916 66.0302 25.3702C65.4303 26.3331 64.6174 27.0592 63.5914 27.5485C62.5812 28.0379 61.4526 28.2825 60.2056 28.2825C58.9743 28.2825 57.8536 28.0379 56.8434 27.5485C55.8489 27.0592 55.0597 26.3331 54.4757 25.3702C53.8916 24.3916 53.5996 23.1998 53.5996 21.795V13.0699C53.5996 12.2526 54.2622 11.5901 55.0794 11.5901H55.4346Z" fill="white"/>
<path d="M164.631 45.8746H168.597C169.414 45.8746 170.077 46.5372 170.077 47.3545V47.3545C170.077 48.1718 169.414 48.8343 168.597 48.8343H162.796C161.979 48.8343 161.316 48.1718 161.316 47.3545V33.7874C161.316 32.9702 161.979 32.3076 162.796 32.3076H163.151C163.968 32.3076 164.631 32.9702 164.631 33.7874V45.8746Z" fill="white"/>
<path d="M154.502 45.6851H147.919L147.175 47.8381C146.968 48.4343 146.407 48.8342 145.776 48.8342H145.453C144.429 48.8342 143.714 47.8184 144.061 46.8543L148.941 33.2635C149.152 32.6758 149.709 32.2838 150.334 32.2838H152.111C152.735 32.2838 153.293 32.6758 153.504 33.2635L158.384 46.8543C158.73 47.8184 158.016 48.8342 156.991 48.8342H156.645C156.014 48.8342 155.452 48.4343 155.246 47.8381L154.502 45.6851ZM153.602 43.0333L151.21 36.1195L148.819 43.0333H153.602Z" fill="white"/>
<path d="M138.586 48.8343C138.053 48.8343 137.561 48.5475 137.298 48.0836L134.077 42.3941H132.514V47.3545C132.514 48.1718 131.852 48.8343 131.034 48.8343H130.679C129.862 48.8343 129.199 48.1718 129.199 47.3545V33.7874C129.199 32.9702 129.862 32.3076 130.679 32.3076H135.403C136.681 32.3076 137.771 32.5365 138.67 32.9943C139.57 33.4362 140.241 34.0439 140.683 34.8174C141.141 35.5751 141.37 36.4275 141.37 37.3745C141.37 38.4637 141.054 39.4502 140.422 40.3342C139.791 41.2024 138.852 41.8022 137.605 42.1337L140.242 46.6024C140.824 47.5889 140.113 48.8343 138.967 48.8343H138.586ZM132.514 39.908H135.285C136.184 39.908 136.855 39.6949 137.297 39.2687C137.739 38.8267 137.96 38.219 137.96 37.4456C137.96 36.6879 137.739 36.1039 137.297 35.6935C136.855 35.2673 136.184 35.0542 135.285 35.0542H132.514V39.908Z" fill="white"/>
<path d="M114.478 32.3076C115.295 32.3076 115.958 32.9702 115.958 33.7874V42.5362C115.958 43.6569 116.25 44.5172 116.834 45.117C117.418 45.701 118.239 45.9931 119.296 45.9931C120.37 45.9931 121.198 45.701 121.782 45.117C122.367 44.5172 122.659 43.6569 122.659 42.5362V33.7874C122.659 32.9702 123.321 32.3076 124.138 32.3076H124.517C125.334 32.3076 125.997 32.9702 125.997 33.7874V42.5125C125.997 43.9173 125.689 45.1091 125.074 46.0878C124.474 47.0506 123.661 47.7767 122.635 48.2661C121.625 48.7554 120.496 49.0001 119.249 49.0001C118.018 49.0001 116.897 48.7554 115.887 48.2661C114.892 47.7767 114.103 47.0506 113.519 46.0878C112.935 45.1091 112.643 43.9173 112.643 42.5125V33.7874C112.643 32.9702 113.306 32.3076 114.123 32.3076H114.478Z" fill="white"/>
<path d="M108.934 32.3076C109.673 32.3076 110.272 32.9066 110.272 33.6454V33.6454C110.272 34.3842 109.673 34.9831 108.934 34.9831H105.868V47.3545C105.868 48.1718 105.205 48.8343 104.388 48.8343H104.033C103.216 48.8343 102.553 48.1718 102.553 47.3545V34.9831H99.4869C98.7481 34.9831 98.1492 34.3842 98.1492 33.6454V33.6454C98.1492 32.9066 98.7481 32.3076 99.4869 32.3076H108.934Z" fill="white"/>
<path d="M91.472 45.8746H95.438C96.2553 45.8746 96.9178 46.5372 96.9178 47.3545V47.3545C96.9178 48.1718 96.2553 48.8343 95.438 48.8343H89.6371C88.8198 48.8343 88.1572 48.1718 88.1572 47.3545V33.7874C88.1572 32.9702 88.8198 32.3076 89.6371 32.3076H89.9922C90.8095 32.3076 91.472 32.9702 91.472 33.7874V45.8746Z" fill="white"/>
<path d="M73.4361 32.3076C74.2533 32.3076 74.9159 32.9702 74.9159 33.7874V42.5362C74.9159 43.6569 75.2079 44.5172 75.7919 45.117C76.376 45.701 77.1968 45.9931 78.2544 45.9931C79.3277 45.9931 80.1564 45.701 80.7405 45.117C81.3245 44.5172 81.6165 43.6569 81.6165 42.5362V33.7874C81.6165 32.9702 82.2791 32.3076 83.0964 32.3076H83.4752C84.2925 32.3076 84.955 32.9702 84.955 33.7874V42.5125C84.955 43.9173 84.6472 45.1091 84.0316 46.0878C83.4318 47.0506 82.6189 47.7767 81.5929 48.2661C80.5826 48.7554 79.454 49.0001 78.207 49.0001C76.9758 49.0001 75.8551 48.7554 74.8449 48.2661C73.8504 47.7767 73.0612 47.0506 72.4771 46.0878C71.8931 45.1091 71.6011 43.9173 71.6011 42.5125V33.7874C71.6011 32.9702 72.2636 32.3076 73.0809 32.3076H73.4361Z" fill="white"/>
<path d="M52.6689 40.5473C52.6689 38.9214 53.032 37.4692 53.7581 36.1906C54.5 34.8963 55.5023 33.894 56.7651 33.1836C58.0437 32.4575 59.4722 32.0945 61.0507 32.0945C62.8975 32.0945 64.5155 32.568 65.9045 33.5151C66.7338 34.0805 67.4139 34.7753 67.945 35.5994C68.4912 36.447 67.7781 37.4455 66.7698 37.4455H65.9359C65.3668 37.4455 64.8678 37.103 64.5206 36.6521C64.2081 36.2461 63.8328 35.9187 63.3947 35.6697C62.716 35.2751 61.9267 35.0778 61.027 35.0778C60.0641 35.0778 59.2039 35.3067 58.4462 35.7645C57.7043 36.2064 57.1203 36.8378 56.6941 37.6586C56.2837 38.4794 56.0785 39.4423 56.0785 40.5473C56.0785 41.6364 56.2837 42.5993 56.6941 43.4359C57.1203 44.2567 57.7043 44.896 58.4462 45.3537C59.2039 45.7957 60.0641 46.0167 61.027 46.0167C61.9267 46.0167 62.716 45.8194 63.3947 45.4248C63.8336 45.1654 64.2095 44.8305 64.5223 44.4198C64.8672 43.9671 65.3668 43.6253 65.9359 43.6253H66.7758C67.7823 43.6253 68.496 44.6207 67.9557 45.4699C67.423 46.3071 66.7393 47.0102 65.9045 47.5794C64.5312 48.5107 62.9133 48.9763 61.0507 48.9763C59.4722 48.9763 58.0437 48.6212 56.7651 47.9109C55.5023 47.1848 54.5 46.1824 53.7581 44.9039C53.032 43.6253 52.6689 42.1731 52.6689 40.5473Z" fill="white"/>
<path fill-rule="evenodd" clip-rule="evenodd" d="M90.1768 0.739913C90.1768 1.14856 89.8455 1.47983 89.4369 1.47983C89.0283 1.47983 88.697 1.14856 88.697 0.739913C88.697 0.33127 89.0283 0 89.4369 0C89.8455 0 90.1768 0.33127 90.1768 0.739913ZM86.4772 2.95965C86.8859 2.95965 87.2172 2.62838 87.2172 2.21974C87.2172 1.8111 86.8859 1.47983 86.4772 1.47983C86.0686 1.47983 85.7373 1.8111 85.7373 2.21974C85.7373 2.62838 86.0686 2.95965 86.4772 2.95965ZM90.1768 4.43948C90.1768 5.25677 89.5143 5.91931 88.697 5.91931C87.8797 5.91931 87.2172 5.25677 87.2172 4.43948C87.2172 3.62219 87.8797 2.95965 88.697 2.95965C89.5143 2.95965 90.1768 3.62219 90.1768 4.43948ZM87.2137 6.0027C87.216 5.9751 87.2172 5.94729 87.2172 5.91931C87.2172 5.27412 86.5978 4.72536 85.7339 4.52287C85.7362 4.49527 85.7373 4.46747 85.7373 4.43948C85.7373 3.62219 84.7435 2.95965 83.5176 2.95965C82.2917 2.95965 81.2979 3.62219 81.2979 4.43948C81.2979 5.08467 81.9172 5.63342 82.7811 5.83591C82.7788 5.86352 82.7777 5.89132 82.7777 5.91931C82.7777 6.5645 83.397 7.11325 84.261 7.31574C84.2587 7.34335 84.2575 7.37115 84.2575 7.39913C84.2575 8.21642 85.2513 8.87896 86.4772 8.87896C87.7032 8.87896 88.697 8.21642 88.697 7.39913C88.697 6.75394 88.0776 6.20519 87.2137 6.0027Z" fill="#B87F3C"/>
<path d="M11.7966 40.5473C11.7966 38.9214 12.1597 37.4692 12.8858 36.1906C13.6277 34.8963 14.63 33.894 15.8928 33.1836C17.1714 32.4575 18.5999 32.0945 20.1784 32.0945C22.0252 32.0945 23.6431 32.568 25.0322 33.5151C25.8614 34.0805 26.5416 34.7753 27.0727 35.5994C27.6189 36.447 26.9058 37.4455 25.8975 37.4455H25.0636C24.4945 37.4455 23.9955 37.103 23.6483 36.6521C23.3358 36.2461 22.9605 35.9187 22.5224 35.6697C21.8437 35.2751 21.0544 35.0778 20.1547 35.0778C19.1918 35.0778 18.3315 35.3067 17.5739 35.7645C16.832 36.2064 16.2479 36.8378 15.8218 37.6586C15.4114 38.4794 15.2062 39.4423 15.2062 40.5473C15.2062 41.6364 15.4114 42.5993 15.8218 43.4359C16.2479 44.2567 16.832 44.896 17.5739 45.3537C18.3315 45.7957 19.1918 46.0167 20.1547 46.0167C21.0544 46.0167 21.8437 45.8194 22.5224 45.4248C22.9613 45.1654 23.3371 44.8305 23.65 44.4198C23.9949 43.9671 24.4945 43.6253 25.0636 43.6253H25.9035C26.91 43.6253 27.6237 44.6207 27.0833 45.4699C26.5507 46.3071 25.867 47.0102 25.0322 47.5794C23.6589 48.5107 22.041 48.9763 20.1784 48.9763C18.5999 48.9763 17.1714 48.6212 15.8928 47.9109C14.63 47.1848 13.6277 46.1824 12.8858 44.9039C12.1597 43.6253 11.7966 42.1731 11.7966 40.5473Z" fill="white"/>
<path d="M3.31481 34.983V39.1265H7.56487C8.29062 39.1265 8.87896 39.7149 8.87896 40.4406V40.4406C8.87896 41.1664 8.29062 41.7547 7.56487 41.7547H3.31481V46.135H8.23967C8.98504 46.135 9.58928 46.7392 9.58928 47.4846V47.4846C9.58928 48.23 8.98504 48.8342 8.23968 48.8342H1.47983C0.662543 48.8342 0 48.1717 0 47.3544V33.7636C0 32.9464 0.662541 32.2838 1.47983 32.2838H8.23967C8.98504 32.2838 9.58928 32.8881 9.58928 33.6334V33.6334C9.58928 34.3788 8.98504 34.983 8.23967 34.983H3.31481Z" fill="white"/>
<path d="M30.4717 39.0674C31.1065 35.9615 33.4587 33.4759 36.4995 32.6294C36.755 32.5586 36.882 32.5228 36.9512 32.5985C37.0204 32.675 36.9691 32.8003 36.8682 33.0526L36.169 34.5909M40.2385 32.5562C43.3444 33.191 45.8301 35.5432 46.6765 38.5839C46.7473 38.8395 46.7831 38.9665 46.7074 39.0356C46.6309 39.1048 46.5056 39.0536 46.2533 38.9526L44.715 38.2535M46.7498 42.323C46.1149 45.4289 43.7627 47.9145 40.722 48.761C40.4664 48.8318 40.3395 48.8676 40.2703 48.7919C40.2011 48.7154 40.2524 48.5901 40.3533 48.3378L41.0524 46.7995M36.9829 48.8342C33.8771 48.1994 31.3914 45.8472 30.5449 42.8065C30.4741 42.5509 30.4383 42.4239 30.514 42.3547C30.5905 42.2856 30.7159 42.3368 30.9682 42.4378L32.5064 43.1369M38.6107 39.9619C37.5421 40.6944 36.2496 42.1431 35.7621 44.3578M36.4742 42.4077C34.7878 38.5058 38.1899 37.1897 40.779 37.0432C41.0915 37.0253 41.2478 37.0163 41.3593 37.1303C41.4716 37.2442 41.4651 37.407 41.4521 37.731C41.3454 40.4299 40.2695 44.1429 36.4742 42.4077Z" stroke="#32B630" stroke-width="1.92377" stroke-linecap="round" stroke-linejoin="round"/>
</svg>