<svg width="171" height="50" viewBox="0 0 171 50" fill="none" xmlns="http://www.w3.org/2000/svg">
<path d="M118.72 24.9677H112.138L111.393 27.1207C111.187 27.7169 110.625 28.1168 109.994 28.1168H109.672C108.647 28.1168 107.933 27.101 108.279 26.1368L113.159 12.5461C113.37 11.9584 113.927 11.5664 114.552 11.5664H116.329C116.954 11.5664 117.511 11.9584 117.722 12.5461L122.602 26.1368C122.948 27.101 122.234 28.1168 121.209 28.1168H120.863C120.232 28.1168 119.671 27.7169 119.464 27.1207L118.72 24.9677ZM117.82 22.3159L115.429 15.4021L113.037 22.3159H117.82Z" fill="url(#paint0_linear_530_88)"/>
<path d="M105.31 26.637C105.31 27.4542 104.648 28.1168 103.83 28.1168H102.791C102.294 28.1168 101.831 27.8677 101.556 27.4537L94.4897 16.7754V25.4057V26.637C94.4897 27.4542 93.8271 28.1168 93.0099 28.1168H92.6547C91.8374 28.1168 91.1749 27.4542 91.1749 26.637V13.0462C91.1749 12.2289 91.8374 11.5664 92.6547 11.5664H93.6936C94.1906 11.5664 94.6545 11.816 94.9284 12.2307L101.995 22.9315V13.0462C101.995 12.2289 102.658 11.5664 103.475 11.5664H103.83C104.648 11.5664 105.31 12.2289 105.31 13.0462V26.637Z" fill="url(#paint1_linear_530_88)"/>
<path d="M88.7506 11.5898C88.8573 11.5898 88.9289 11.6992 88.8862 11.797L87.8998 14.0581V27.8206C87.8998 27.984 87.7673 28.1165 87.6038 28.1165H84.881C84.7175 28.1165 84.585 27.984 84.585 27.8206V14.0581L83.6071 11.7966C83.5649 11.6989 83.6365 11.5898 83.743 11.5898H88.7506Z" fill="#F98600"/>
<path d="M75.8628 28.2822C74.7105 28.2822 73.6687 28.0849 72.7374 27.6903C71.8219 27.2957 71.0958 26.7274 70.5591 25.9856C70.1596 25.4333 69.9044 24.8067 69.7935 24.1057C69.729 23.6976 70.0688 23.3574 70.4819 23.3574H72.5919C72.9805 23.3574 73.2886 23.6642 73.4065 24.0345C73.5241 24.4038 73.7194 24.7147 73.9923 24.9674C74.4343 25.3621 75.0341 25.5594 75.7917 25.5594C76.5652 25.5594 77.1729 25.3778 77.6149 25.0148C78.0569 24.636 78.2779 24.1466 78.2779 23.5468C78.2779 23.0575 78.1279 22.655 77.828 22.3393C77.5281 22.0236 77.1492 21.7789 76.6915 21.6053C76.2495 21.4158 75.6339 21.2106 74.8447 20.9897C73.7713 20.674 72.8952 20.3662 72.2165 20.0662C71.5535 19.7505 70.9774 19.2849 70.488 18.6693C70.0145 18.0379 69.7777 17.2013 69.7777 16.1595C69.7777 15.1808 70.0224 14.3285 70.5117 13.6024C71.0011 12.8763 71.6877 12.3238 72.5716 11.945C73.4556 11.5503 74.4658 11.353 75.6023 11.353C77.3071 11.353 78.6883 11.7713 79.7458 12.6079C80.6208 13.277 81.1759 14.1664 81.411 15.276C81.5002 15.6969 81.1549 16.0648 80.7246 16.0648H78.5753C78.1826 16.0648 77.8765 15.7456 77.7158 15.3873C77.5933 15.1143 77.4018 14.8744 77.1414 14.6678C76.6994 14.289 76.1074 14.0996 75.3656 14.0996C74.7184 14.0996 74.1975 14.2653 73.8029 14.5968C73.424 14.9283 73.2346 15.4097 73.2346 16.0411C73.2346 16.4831 73.3767 16.854 73.6608 17.1539C73.9607 17.4381 74.3238 17.6748 74.7499 17.8643C75.1919 18.0379 75.8075 18.2431 76.5968 18.4799C77.6701 18.7956 78.5462 19.1113 79.2249 19.427C79.9037 19.7427 80.4877 20.2162 80.9771 20.8476C81.4664 21.479 81.7111 22.3077 81.7111 23.3337C81.7111 24.2177 81.4822 25.0385 81.0244 25.7961C80.5667 26.5538 79.8958 27.1615 79.0119 27.6193C78.1279 28.0613 77.0782 28.2822 75.8628 28.2822Z" fill="url(#paint2_linear_530_88)"/>
<path d="M55.4347 11.5898C56.252 11.5898 56.9145 12.2524 56.9145 13.0697V21.8184C56.9145 22.9391 57.2065 23.7994 57.7906 24.3992C58.3746 24.9833 59.1954 25.2753 60.253 25.2753C61.3264 25.2753 62.1551 24.9833 62.7391 24.3992C63.3231 23.7994 63.6152 22.9391 63.6152 21.8184V13.0697C63.6152 12.2524 64.2777 11.5898 65.095 11.5898H65.4738C66.2911 11.5898 66.9537 12.2524 66.9537 13.0697V21.7947C66.9537 23.1996 66.6459 24.3913 66.0302 25.37C65.4304 26.3329 64.6175 27.059 63.5915 27.5483C62.5813 28.0376 61.4526 28.2823 60.2056 28.2823C58.9744 28.2823 57.8537 28.0376 56.8435 27.5483C55.849 27.059 55.0598 26.3329 54.4758 25.37C53.8917 24.3913 53.5997 23.1996 53.5997 21.7947V13.0697C53.5997 12.2524 54.2622 11.5898 55.0795 11.5898H55.4347Z" fill="url(#paint3_linear_530_88)"/>
<path d="M164.631 45.8746H168.597C169.414 45.8746 170.077 46.5372 170.077 47.3545V47.3545C170.077 48.1718 169.414 48.8343 168.597 48.8343H162.796C161.979 48.8343 161.316 48.1718 161.316 47.3545V33.7874C161.316 32.9702 161.979 32.3076 162.796 32.3076H163.151C163.969 32.3076 164.631 32.9702 164.631 33.7874V45.8746Z" fill="url(#paint4_linear_530_88)"/>
<path d="M154.502 45.685H147.919L147.175 47.838C146.968 48.4341 146.407 48.8341 145.776 48.8341H145.453C144.429 48.8341 143.714 47.8183 144.061 46.8541L148.941 33.2634C149.152 32.6757 149.709 32.2837 150.334 32.2837H152.111C152.735 32.2837 153.293 32.6757 153.504 33.2634L158.384 46.8541C158.73 47.8183 158.016 48.8341 156.991 48.8341H156.645C156.014 48.8341 155.452 48.4341 155.246 47.838L154.502 45.685ZM153.602 43.0332L151.21 36.1194L148.819 43.0332H153.602Z" fill="url(#paint5_linear_530_88)"/>
<path d="M138.586 48.8343C138.053 48.8343 137.561 48.5475 137.298 48.0836L134.077 42.3941H132.514V47.3545C132.514 48.1718 131.852 48.8343 131.034 48.8343H130.679C129.862 48.8343 129.199 48.1718 129.199 47.3545V33.7874C129.199 32.9702 129.862 32.3076 130.679 32.3076H135.403C136.681 32.3076 137.771 32.5365 138.67 32.9943C139.57 33.4362 140.241 34.0439 140.683 34.8174C141.141 35.5751 141.37 36.4275 141.37 37.3745C141.37 38.4637 141.054 39.4502 140.422 40.3342C139.791 41.2024 138.852 41.8022 137.605 42.1337L140.242 46.6024C140.824 47.5889 140.113 48.8343 138.967 48.8343H138.586ZM132.514 39.908H135.285C136.184 39.908 136.855 39.6949 137.297 39.2687C137.739 38.8267 137.96 38.219 137.96 37.4456C137.96 36.6879 137.739 36.1039 137.297 35.6935C136.855 35.2673 136.184 35.0542 135.285 35.0542H132.514V39.908Z" fill="url(#paint6_linear_530_88)"/>
<path d="M114.478 32.3076C115.295 32.3076 115.958 32.9702 115.958 33.7874V42.5362C115.958 43.6569 116.25 44.5172 116.834 45.117C117.418 45.701 118.239 45.9931 119.296 45.9931C120.37 45.9931 121.199 45.701 121.783 45.117C122.367 44.5172 122.659 43.6569 122.659 42.5362V33.7874C122.659 32.9702 123.321 32.3076 124.138 32.3076H124.517C125.335 32.3076 125.997 32.9702 125.997 33.7874V42.5125C125.997 43.9173 125.689 45.1091 125.074 46.0878C124.474 47.0506 123.661 47.7767 122.635 48.2661C121.625 48.7554 120.496 49.0001 119.249 49.0001C118.018 49.0001 116.897 48.7554 115.887 48.2661C114.893 47.7767 114.103 47.0506 113.519 46.0878C112.935 45.1091 112.643 43.9173 112.643 42.5125V33.7874C112.643 32.9702 113.306 32.3076 114.123 32.3076H114.478Z" fill="url(#paint7_linear_530_88)"/>
<path d="M108.934 32.3076C109.673 32.3076 110.272 32.9066 110.272 33.6454V33.6454C110.272 34.3842 109.673 34.9831 108.934 34.9831H105.868V47.3545C105.868 48.1718 105.205 48.8343 104.388 48.8343H104.033C103.216 48.8343 102.553 48.1718 102.553 47.3545V34.9831H99.4869C98.748 34.9831 98.1491 34.3842 98.1491 33.6454V33.6454C98.1491 32.9066 98.748 32.3076 99.4869 32.3076H108.934Z" fill="url(#paint8_linear_530_88)"/>
<path d="M91.4722 45.8746H95.4382C96.2554 45.8746 96.918 46.5372 96.918 47.3545V47.3545C96.918 48.1718 96.2554 48.8343 95.4382 48.8343H89.6372C88.8199 48.8343 88.1574 48.1718 88.1574 47.3545V33.7874C88.1574 32.9702 88.82 32.3076 89.6372 32.3076H89.9924C90.8097 32.3076 91.4722 32.9702 91.4722 33.7874V45.8746Z" fill="url(#paint9_linear_530_88)"/>
<path d="M73.4361 32.3076C74.2534 32.3076 74.9159 32.9702 74.9159 33.7874V42.5362C74.9159 43.6569 75.208 44.5172 75.792 45.117C76.376 45.701 77.1969 45.9931 78.2544 45.9931C79.3278 45.9931 80.1565 45.701 80.7405 45.117C81.3246 44.5172 81.6166 43.6569 81.6166 42.5362V33.7874C81.6166 32.9702 82.2791 32.3076 83.0964 32.3076H83.4753C84.2926 32.3076 84.9551 32.9702 84.9551 33.7874V42.5125C84.9551 43.9173 84.6473 45.1091 84.0317 46.0878C83.4319 47.0506 82.6189 47.7767 81.5929 48.2661C80.5827 48.7554 79.4541 49.0001 78.2071 49.0001C76.9759 49.0001 75.8551 48.7554 74.8449 48.2661C73.8505 47.7767 73.0612 47.0506 72.4772 46.0878C71.8932 45.1091 71.6011 43.9173 71.6011 42.5125V33.7874C71.6011 32.9702 72.2637 32.3076 73.081 32.3076H73.4361Z" fill="url(#paint10_linear_530_88)"/>
<path d="M52.669 40.547C52.669 38.9212 53.0321 37.469 53.7582 36.1904C54.5 34.896 55.5024 33.8937 56.7652 33.1834C58.0437 32.4573 59.4723 32.0942 61.0507 32.0942C62.8976 32.0942 64.5155 32.5678 65.9046 33.5149C66.7338 34.0803 67.414 34.775 67.9451 35.5992C68.4913 36.4468 67.7781 37.4453 66.7698 37.4453H65.936C65.3669 37.4453 64.8679 37.1028 64.5207 36.6518C64.2082 36.2459 63.8329 35.9184 63.3948 35.6695C62.716 35.2749 61.9268 35.0776 61.0271 35.0776C60.0642 35.0776 59.2039 35.3064 58.4462 35.7642C57.7044 36.2062 57.1203 36.8376 56.6941 37.6584C56.2837 38.4792 56.0785 39.4421 56.0785 40.547C56.0785 41.6362 56.2837 42.599 56.6941 43.4356C57.1203 44.2564 57.7044 44.8957 58.4462 45.3535C59.2039 45.7955 60.0642 46.0164 61.0271 46.0164C61.9268 46.0164 62.716 45.8191 63.3948 45.4245C63.8337 45.1652 64.2095 44.8302 64.5223 44.4196C64.8672 43.9669 65.3669 43.625 65.936 43.625H66.7758C67.7824 43.625 68.4961 44.6205 67.9557 45.4697C67.4231 46.3068 66.7394 47.01 65.9046 47.5791C64.5313 48.5104 62.9133 48.9761 61.0507 48.9761C59.4723 48.9761 58.0437 48.6209 56.7652 47.9106C55.5024 47.1845 54.5 46.1822 53.7582 44.9036C53.0321 43.625 52.669 42.1728 52.669 40.547Z" fill="url(#paint11_linear_530_88)"/>
<path fill-rule="evenodd" clip-rule="evenodd" d="M90.177 0.739913C90.177 1.14856 89.8457 1.47983 89.437 1.47983C89.0284 1.47983 88.6971 1.14856 88.6971 0.739913C88.6971 0.33127 89.0284 0 89.437 0C89.8457 0 90.177 0.33127 90.177 0.739913ZM86.4774 2.95965C86.886 2.95965 87.2173 2.62838 87.2173 2.21974C87.2173 1.8111 86.886 1.47983 86.4774 1.47983C86.0688 1.47983 85.7375 1.8111 85.7375 2.21974C85.7375 2.62838 86.0688 2.95965 86.4774 2.95965ZM90.177 4.43948C90.177 5.25677 89.5144 5.91931 88.6971 5.91931C87.8799 5.91931 87.2173 5.25677 87.2173 4.43948C87.2173 3.62219 87.8799 2.95965 88.6971 2.95965C89.5144 2.95965 90.177 3.62219 90.177 4.43948ZM87.2138 6.0027C87.2161 5.9751 87.2173 5.94729 87.2173 5.91931C87.2173 5.27412 86.598 4.72536 85.734 4.52287C85.7363 4.49527 85.7375 4.46747 85.7375 4.43948C85.7375 3.62219 84.7437 2.95965 83.5177 2.95965C82.2918 2.95965 81.298 3.62219 81.298 4.43948C81.298 5.08467 81.9173 5.63342 82.7813 5.83591C82.779 5.86352 82.7778 5.89132 82.7778 5.91931C82.7778 6.5645 83.3972 7.11325 84.2611 7.31574C84.2588 7.34335 84.2577 7.37115 84.2577 7.39913C84.2577 8.21642 85.2515 8.87896 86.4774 8.87896C87.7033 8.87896 88.6971 8.21642 88.6971 7.39913C88.6971 6.75394 88.0778 6.20519 87.2138 6.0027Z" fill="#B87F3C"/>
<path d="M11.7967 40.547C11.7967 38.9212 12.1598 37.469 12.8859 36.1904C13.6277 34.896 14.6301 33.8937 15.8929 33.1834C17.1714 32.4573 18.6 32.0942 20.1784 32.0942C22.0253 32.0942 23.6432 32.5678 25.0323 33.5149C25.8615 34.0803 26.5417 34.775 27.0728 35.5992C27.619 36.4468 26.9058 37.4453 25.8975 37.4453H25.0637C24.4946 37.4453 23.9956 37.1028 23.6484 36.6518C23.3359 36.2459 22.9606 35.9184 22.5225 35.6695C21.8437 35.2749 21.0545 35.0776 20.1548 35.0776C19.1919 35.0776 18.3316 35.3064 17.574 35.7642C16.8321 36.2062 16.248 36.8376 15.8218 37.6584C15.4114 38.4792 15.2062 39.4421 15.2062 40.547C15.2062 41.6362 15.4114 42.599 15.8218 43.4356C16.248 44.2564 16.8321 44.8957 17.574 45.3535C18.3316 45.7955 19.1919 46.0164 20.1548 46.0164C21.0545 46.0164 21.8437 45.8191 22.5225 45.4245C22.9614 45.1652 23.3372 44.8302 23.65 44.4196C23.9949 43.9669 24.4946 43.625 25.0637 43.625H25.9035C26.9101 43.625 27.6238 44.6205 27.0834 45.4697C26.5508 46.3068 25.8671 47.01 25.0323 47.5791C23.659 48.5104 22.0411 48.9761 20.1784 48.9761C18.6 48.9761 17.1714 48.6209 15.8929 47.9106C14.6301 47.1845 13.6277 46.1822 12.8859 44.9036C12.1598 43.625 11.7967 42.1728 11.7967 40.547Z" fill="url(#paint12_linear_530_88)"/>
<path d="M3.31481 34.9829V39.1264H7.56487C8.29062 39.1264 8.87896 39.7147 8.87896 40.4405V40.4405C8.87896 41.1662 8.29062 41.7546 7.56487 41.7546H3.31481V46.1349H8.23967C8.98504 46.1349 9.58928 46.7391 9.58928 47.4845V47.4845C9.58928 48.2298 8.98504 48.8341 8.23968 48.8341H1.47983C0.662543 48.8341 0 48.1715 0 47.3542V33.7635C0 32.9462 0.662541 32.2837 1.47983 32.2837H8.23967C8.98504 32.2837 9.58928 32.8879 9.58928 33.6333V33.6333C9.58928 34.3787 8.98504 34.9829 8.23967 34.9829H3.31481Z" fill="url(#paint13_linear_530_88)"/>
<path d="M30.4716 39.0674C31.1064 35.9615 33.4586 33.4759 36.4993 32.6294C36.7549 32.5586 36.8819 32.5228 36.9511 32.5985C37.0202 32.675 36.969 32.8003 36.868 33.0526L36.1689 34.5909M40.2384 32.5562C43.3443 33.191 45.8299 35.5432 46.6764 38.5839C46.7472 38.8395 46.783 38.9665 46.7073 39.0356C46.6308 39.1048 46.5055 39.0536 46.2532 38.9526L44.7149 38.2535M46.7496 42.323C46.1148 45.4289 43.7626 47.9145 40.7219 48.761C40.4663 48.8318 40.3393 48.8676 40.2702 48.7919C40.201 48.7154 40.2522 48.5901 40.3532 48.3378L41.0523 46.7995M36.9828 48.8342C33.8769 48.1994 31.3913 45.8472 30.5448 42.8065C30.474 42.5509 30.4382 42.4239 30.5139 42.3547C30.5904 42.2856 30.7157 42.3368 30.968 42.4378L32.5063 43.1369M38.6106 39.9619C37.5419 40.6944 36.2495 42.1431 35.7619 44.3578M36.4741 42.4077C34.7877 38.5058 38.1898 37.1897 40.7788 37.0432C41.0914 37.0253 41.2477 37.0163 41.3592 37.1303C41.4715 37.2442 41.465 37.407 41.4519 37.731C41.3453 40.4299 40.2693 44.1429 36.4741 42.4077Z" stroke="#32B630" stroke-width="1.92377" stroke-linecap="round" stroke-linejoin="round"/>
<defs>
<linearGradient id="paint0_linear_530_88" x1="115.441" y1="11.5664" x2="115.441" y2="28.1168" gradientUnits="userSpaceOnUse">
<stop stop-color="#222222"/>
<stop offset="1" stop-color="#181818"/>
</linearGradient>
<linearGradient id="paint1_linear_530_88" x1="98.2425" y1="11.5664" x2="98.2425" y2="28.1168" gradientUnits="userSpaceOnUse">
<stop stop-color="#222222"/>
<stop offset="1" stop-color="#181818"/>
</linearGradient>
<linearGradient id="paint2_linear_530_88" x1="75.7207" y1="11.353" x2="75.7207" y2="28.2822" gradientUnits="userSpaceOnUse">
<stop stop-color="#222222"/>
<stop offset="1" stop-color="#181818"/>
</linearGradient>
<linearGradient id="paint3_linear_530_88" x1="60.2767" y1="11.5898" x2="60.2767" y2="28.2823" gradientUnits="userSpaceOnUse">
<stop stop-color="#222222"/>
<stop offset="1" stop-color="#181818"/>
</linearGradient>
<linearGradient id="paint4_linear_530_88" x1="165.697" y1="32.3076" x2="165.697" y2="48.8343" gradientUnits="userSpaceOnUse">
<stop stop-color="#222222"/>
<stop offset="1" stop-color="#181818"/>
</linearGradient>
<linearGradient id="paint5_linear_530_88" x1="151.222" y1="32.2837" x2="151.222" y2="48.8341" gradientUnits="userSpaceOnUse">
<stop stop-color="#222222"/>
<stop offset="1" stop-color="#181818"/>
</linearGradient>
<linearGradient id="paint6_linear_530_88" x1="135.379" y1="32.3076" x2="135.379" y2="48.8343" gradientUnits="userSpaceOnUse">
<stop stop-color="#222222"/>
<stop offset="1" stop-color="#181818"/>
</linearGradient>
<linearGradient id="paint7_linear_530_88" x1="119.32" y1="32.3076" x2="119.32" y2="49.0001" gradientUnits="userSpaceOnUse">
<stop stop-color="#222222"/>
<stop offset="1" stop-color="#181818"/>
</linearGradient>
<linearGradient id="paint8_linear_530_88" x1="104.21" y1="32.3076" x2="104.21" y2="48.8343" gradientUnits="userSpaceOnUse">
<stop stop-color="#222222"/>
<stop offset="1" stop-color="#181818"/>
</linearGradient>
<linearGradient id="paint9_linear_530_88" x1="92.5377" y1="32.3076" x2="92.5377" y2="48.8343" gradientUnits="userSpaceOnUse">
<stop stop-color="#222222"/>
<stop offset="1" stop-color="#181818"/>
</linearGradient>
<linearGradient id="paint10_linear_530_88" x1="78.2781" y1="32.3076" x2="78.2781" y2="49.0001" gradientUnits="userSpaceOnUse">
<stop stop-color="#222222"/>
<stop offset="1" stop-color="#181818"/>
</linearGradient>
<linearGradient id="paint11_linear_530_88" x1="60.7429" y1="32.0942" x2="60.7429" y2="48.9761" gradientUnits="userSpaceOnUse">
<stop stop-color="#222222"/>
<stop offset="1" stop-color="#181818"/>
</linearGradient>
<linearGradient id="paint12_linear_530_88" x1="19.8706" y1="32.0942" x2="19.8706" y2="48.9761" gradientUnits="userSpaceOnUse">
<stop stop-color="#222222"/>
<stop offset="1" stop-color="#181818"/>
</linearGradient>
<linearGradient id="paint13_linear_530_88" x1="4.79464" y1="32.2837" x2="4.79464" y2="48.8341" gradientUnits="userSpaceOnUse">
<stop stop-color="#222222"/>
<stop offset="1" stop-color="#181818"/>
</linearGradient>
</defs>
</svg>
